<svg xmlns="http://www.w3.org/2000/svg" viewBox="0 0 410 410"><defs><linearGradient id="vite-a" x1="196.87" x2="276.87" y1="13.12" y2="93.12" gradientUnits="userSpaceOnUse"><stop stop-color="#41d1ff"/><stop offset="1" stop-color="#bd34fe"/></linearGradient><linearGradient id="vite-b" x1="236.23" x2="260.23" y1="49.77" y2="73.77" gradientUnits="userSpaceOnUse"><stop stop-color="#ffea83"/><stop offset="0.083" stop-color="#ffdd35"/><stop offset="1" stop-color="#ffa800"/></linearGradient></defs><g><path d="M404.6 36.4c-4.7-5.6-12.7-7.2-19.2-3.8L34.7 191.7c-7.2 3.7-10.7 12.1-7.7 19.7l92.2 221.2c3.1 7.4 11.2 11.2 18.7 8.6l265.2-92.2c7.5-2.6 12.1-10.2 10.7-18.1L404.6 36.4z" fill="#646cff"/><path d="M404.6 36.4c-4.7-5.6-12.7-7.2-19.2-3.8L34.7 191.7c-7.2 3.7-10.7 12.1-7.7 19.7l92.2 221.2c3.1 7.4 11.2 11.2 18.7 8.6l265.2-92.2c7.5-2.6 12.1-10.2 10.7-18.1L404.6 36.4z" fill="url(#vite-a)"/><path d="M272.7 0c-6.7-2.2-13.9 1.1-16.6 7.6l-99.2 229.2c-2.7 6.3 0.1 13.6 6.3 16.3l87.2 38.1c6.2 2.7 13.6-0.1 16.3-6.3l99.2-229.2c2.7-6.3-0.1-13.6-6.3-16.3L272.7 0z" fill="#646cff"/><path d="M272.7 0c-6.7-2.2-13.9 1.1-16.6 7.6l-99.2 229.2c-2.7 6.3 0.1 13.6 6.3 16.3l87.2 38.1c6.2 2.7 13.6-0.1 16.3-6.3l99.2-229.2c2.7-6.3-0.1-13.6-6.3-16.3L272.7 0z" fill="url(#vite-b)"/></g></svg>
